# xmcd
#
# Track frame offsets:
#	150
#	17817
#	38527
#	53945
#	72497
#	88992
#	106270
#	126052
#	150532
#	170362
#	190172
#	209850
#	229192
#
# Disc length: 3260 seconds
#
# Revision: 1
# Processed by: cddbd v1.5.1PL0 Copyright (c) Steve Scherf et al.
# Submitted via: audiograbber 1.83.01
#
DISCID=b30cba0d
DTITLE=Jeff Healey Band - Get me Some
DYEAR=2000
DGENRE=Blues
TTITLE0=Which One
TTITLE1=Hey Hey
TTITLE2=My Life Story
TTITLE3=I Tried
TTITLE4=I Should Have Told You
TTITLE5=The Damage is Done
TTITLE6=Love Is the Answer
TTITLE7=Feel Better
TTITLE8=Holding On
TTITLE9=Macon Georgia Blue
TTITLE10=House is Burning Down
TTITLE11=Runaway Heart
TTITLE12=Rachel's Song
EXTD=
EXTT0=
EXTT1=
EXTT2=
EXTT3=
EXTT4=
EXTT5=
EXTT6=
EXTT7=
EXTT8=
EXTT9=
EXTT10=
EXTT11=
EXTT12=
PLAYORDER=
